<svg width="520" height="150" viewBox="0 0 520 150" fill="none" xmlns="http://www.w3.org/2000/svg">
<rect width="520" height="150" rx="10" fill="white"/>
<path d="M16.937 34V29.152L16.033 29.352V28.888L17.161 28.4H17.617V34H16.937Z" fill="#5B5B5B"/>
<path d="M17.7061 70V68.8H14.8661V68.28L17.5861 64.4H18.3701V68.208H19.2021V68.8H18.3701V70H17.7061ZM15.6101 68.208H17.7381V65.144L15.6101 68.208Z" fill="#5B5B5B"/>
<path d="M15.9232 106L18.1472 100.976H15.0752V100.4H18.8352V100.904L16.6352 106H15.9232Z" fill="#5B5B5B"/>
<path d="M15.2149 46V45.528C15.5936 45.2293 15.9509 44.928 16.2869 44.624C16.6283 44.3147 16.9296 44.0107 17.1909 43.712C17.4576 43.4133 17.6656 43.12 17.8149 42.832C17.9696 42.544 18.0469 42.2667 18.0469 42C18.0469 41.8027 18.0123 41.6187 17.9429 41.448C17.8789 41.2773 17.7723 41.1413 17.6229 41.04C17.4736 40.9333 17.2709 40.88 17.0149 40.88C16.7696 40.88 16.5643 40.936 16.3989 41.048C16.2336 41.1547 16.1083 41.2987 16.0229 41.48C15.9429 41.6613 15.9029 41.856 15.9029 42.064H15.2549C15.2549 41.696 15.3323 41.3813 15.4869 41.12C15.6416 40.8533 15.8523 40.6507 16.1189 40.512C16.3856 40.3733 16.6869 40.304 17.0229 40.304C17.5189 40.304 17.9243 40.4453 18.2389 40.728C18.5589 41.0053 18.7189 41.4213 18.7189 41.976C18.7189 42.3067 18.6363 42.6347 18.4709 42.96C18.3056 43.28 18.0949 43.592 17.8389 43.896C17.5829 44.1947 17.3083 44.4747 17.0149 44.736C16.7269 44.9973 16.4576 45.232 16.2069 45.44H18.9109V46H15.2149Z" fill="#5B5B5B"/>
<path d="M17.0468 82.096C16.6628 82.096 16.3294 82.0267 16.0468 81.888C15.7641 81.7493 15.5374 81.56 15.3668 81.32C15.2014 81.0747 15.1001 80.7973 15.0628 80.488H15.7188C15.7828 80.7973 15.9321 81.048 16.1668 81.24C16.4014 81.4267 16.6974 81.52 17.0548 81.52C17.3214 81.52 17.5508 81.4587 17.7428 81.336C17.9348 81.208 18.0814 81.0373 18.1828 80.824C18.2894 80.6107 18.3428 80.3733 18.3428 80.112C18.3428 79.696 18.2254 79.36 17.9908 79.104C17.7561 78.848 17.4521 78.72 17.0788 78.72C16.7694 78.72 16.5054 78.7893 16.2868 78.928C16.0681 79.0667 15.9081 79.248 15.8068 79.472H15.1668L15.6468 76.4H18.5828V76.984H16.1668L15.8388 78.688C15.9668 78.5333 16.1428 78.4053 16.3668 78.304C16.5961 78.2027 16.8574 78.152 17.1508 78.152C17.5188 78.152 17.8388 78.2373 18.1108 78.408C18.3881 78.5787 18.6041 78.8107 18.7588 79.104C18.9134 79.3973 18.9908 79.7307 18.9908 80.104C18.9908 80.4613 18.9134 80.792 18.7588 81.096C18.6094 81.4 18.3881 81.6427 18.0948 81.824C17.8068 82.0053 17.4574 82.096 17.0468 82.096Z" fill="#5B5B5B"/>
<path d="M16.9986 118.096C16.6306 118.096 16.2999 118.029 16.0066 117.896C15.7133 117.757 15.4813 117.568 15.3106 117.328C15.1453 117.083 15.0626 116.8 15.0626 116.48C15.0626 116.139 15.1613 115.832 15.3586 115.56C15.5613 115.288 15.8279 115.107 16.1586 115.016C15.8546 114.915 15.6199 114.752 15.4546 114.528C15.2893 114.304 15.2066 114.059 15.2066 113.792C15.2066 113.52 15.2786 113.272 15.4226 113.048C15.5666 112.819 15.7719 112.637 16.0386 112.504C16.3053 112.371 16.6253 112.304 16.9986 112.304C17.3719 112.304 17.6919 112.371 17.9586 112.504C18.2253 112.637 18.4306 112.819 18.5746 113.048C18.7186 113.272 18.7906 113.52 18.7906 113.792C18.7906 114.053 18.7079 114.299 18.5426 114.528C18.3773 114.752 18.1426 114.915 17.8386 115.016C18.1693 115.107 18.4333 115.288 18.6306 115.56C18.8333 115.832 18.9346 116.139 18.9346 116.48C18.9346 116.8 18.8493 117.083 18.6786 117.328C18.5133 117.568 18.2839 117.757 17.9906 117.896C17.6973 118.029 17.3666 118.096 16.9986 118.096ZM16.9986 114.776C17.3399 114.776 17.6093 114.691 17.8066 114.52C18.0093 114.344 18.1106 114.115 18.1106 113.832C18.1106 113.517 18.0119 113.28 17.8146 113.12C17.6173 112.96 17.3453 112.88 16.9986 112.88C16.6519 112.88 16.3799 112.96 16.1826 113.12C15.9906 113.28 15.8946 113.517 15.8946 113.832C15.8946 114.115 15.9933 114.344 16.1906 114.52C16.3879 114.691 16.6573 114.776 16.9986 114.776ZM16.9986 117.504C17.4199 117.504 17.7346 117.408 17.9426 117.216C18.1559 117.019 18.2626 116.76 18.2626 116.44C18.2626 116.077 18.1479 115.803 17.9186 115.616C17.6893 115.429 17.3826 115.336 16.9986 115.336C16.6146 115.336 16.3079 115.429 16.0786 115.616C15.8493 115.803 15.7346 116.077 15.7346 116.44C15.7346 116.76 15.8386 117.019 16.0466 117.216C16.2599 117.408 16.5773 117.504 16.9986 117.504Z" fill="#5B5B5B"/>
<path d="M16.9844 58.096C16.6271 58.096 16.3044 58.032 16.0164 57.904C15.7284 57.7707 15.4964 57.5733 15.3204 57.312C15.1498 57.0507 15.0591 56.7253 15.0484 56.336H15.7284C15.7338 56.656 15.8458 56.9333 16.0644 57.168C16.2831 57.3973 16.5898 57.512 16.9844 57.512C17.3791 57.512 17.6751 57.4027 17.8724 57.184C18.0751 56.9653 18.1764 56.7013 18.1764 56.392C18.1764 56.1307 18.1124 55.9173 17.9844 55.752C17.8618 55.5867 17.6938 55.464 17.4804 55.384C17.2724 55.304 17.0431 55.264 16.7924 55.264H16.3764V54.696H16.7924C17.1551 54.696 17.4378 54.6133 17.6404 54.448C17.8484 54.2827 17.9524 54.0507 17.9524 53.752C17.9524 53.5013 17.8698 53.296 17.7044 53.136C17.5444 52.9707 17.3044 52.888 16.9844 52.888C16.6751 52.888 16.4271 52.9813 16.2404 53.168C16.0538 53.3493 15.9498 53.5787 15.9284 53.856H15.2484C15.2644 53.552 15.3444 53.2827 15.4884 53.048C15.6378 52.8133 15.8404 52.632 16.0964 52.504C16.3524 52.3707 16.6484 52.304 16.9844 52.304C17.3471 52.304 17.6484 52.368 17.8884 52.496C18.1338 52.624 18.3178 52.7947 18.4404 53.008C18.5684 53.2213 18.6324 53.456 18.6324 53.712C18.6324 53.9947 18.5551 54.2533 18.4004 54.488C18.2458 54.7173 18.0138 54.872 17.7044 54.952C18.0351 55.0213 18.3098 55.1787 18.5284 55.424C18.7471 55.6693 18.8564 55.992 18.8564 56.392C18.8564 56.7013 18.7844 56.9867 18.6404 57.248C18.5018 57.504 18.2938 57.7093 18.0164 57.864C17.7391 58.0187 17.3951 58.096 16.9844 58.096Z" fill="#5B5B5B"/>
<path d="M17.0885 94.096C16.6831 94.096 16.3418 94.0213 16.0645 93.872C15.7871 93.7173 15.5631 93.512 15.3925 93.256C15.2271 93 15.1045 92.7147 15.0245 92.4C14.9498 92.08 14.9125 91.7547 14.9125 91.424C14.9125 90.8053 14.9978 90.264 15.1685 89.8C15.3391 89.3307 15.5845 88.9653 15.9045 88.704C16.2298 88.4373 16.6218 88.304 17.0805 88.304C17.4325 88.304 17.7338 88.3733 17.9845 88.512C18.2351 88.6507 18.4325 88.8373 18.5765 89.072C18.7258 89.3013 18.8191 89.5573 18.8565 89.84H18.2325C18.1738 89.536 18.0431 89.3013 17.8405 89.136C17.6378 88.9707 17.3818 88.888 17.0725 88.888C16.6511 88.888 16.2965 89.088 16.0085 89.488C15.7258 89.8827 15.5738 90.5013 15.5525 91.344C15.6805 91.0933 15.8831 90.8773 16.1605 90.696C16.4431 90.5093 16.7818 90.416 17.1765 90.416C17.4965 90.416 17.7951 90.4907 18.0725 90.64C18.3551 90.7893 18.5845 91 18.7605 91.272C18.9365 91.5387 19.0245 91.8533 19.0245 92.216C19.0245 92.5307 18.9471 92.832 18.7925 93.12C18.6378 93.408 18.4138 93.6427 18.1205 93.824C17.8325 94.0053 17.4885 94.096 17.0885 94.096ZM17.0405 93.504C17.2911 93.504 17.5151 93.4507 17.7125 93.344C17.9098 93.2373 18.0645 93.0907 18.1765 92.904C18.2885 92.712 18.3445 92.4933 18.3445 92.248C18.3445 91.8693 18.2191 91.568 17.9685 91.344C17.7231 91.1147 17.4138 91 17.0405 91C16.7898 91 16.5658 91.0587 16.3685 91.176C16.1711 91.288 16.0138 91.44 15.8965 91.632C15.7845 91.824 15.7285 92.032 15.7285 92.256C15.7285 92.496 15.7845 92.712 15.8965 92.904C16.0138 93.0907 16.1711 93.2373 16.3685 93.344C16.5658 93.4507 16.7898 93.504 17.0405 93.504Z" fill="#5B5B5B"/>
<path d="M16.9205 130.096C16.5685 130.096 16.2671 130.027 16.0165 129.888C15.7658 129.749 15.5658 129.565 15.4165 129.336C15.2725 129.101 15.1845 128.843 15.1525 128.56H15.7765C15.8298 128.864 15.9578 129.099 16.1605 129.264C16.3631 129.429 16.6191 129.512 16.9285 129.512C17.3551 129.512 17.7098 129.315 17.9925 128.92C18.2751 128.52 18.4271 127.899 18.4485 127.056C18.3205 127.307 18.1151 127.525 17.8325 127.712C17.5551 127.893 17.2191 127.984 16.8245 127.984C16.5098 127.984 16.2111 127.909 15.9285 127.76C15.6458 127.611 15.4165 127.403 15.2405 127.136C15.0645 126.864 14.9765 126.547 14.9765 126.184C14.9765 125.869 15.0538 125.568 15.2085 125.28C15.3685 124.992 15.5925 124.757 15.8805 124.576C16.1685 124.395 16.5125 124.304 16.9125 124.304C17.3178 124.304 17.6591 124.381 17.9365 124.536C18.2138 124.685 18.4351 124.888 18.6005 125.144C18.7711 125.4 18.8938 125.688 18.9685 126.008C19.0485 126.323 19.0885 126.645 19.0885 126.976C19.0885 127.595 19.0031 128.139 18.8325 128.608C18.6618 129.072 18.4138 129.437 18.0885 129.704C17.7685 129.965 17.3791 130.096 16.9205 130.096ZM16.9605 127.4C17.2111 127.4 17.4351 127.344 17.6325 127.232C17.8298 127.115 17.9871 126.96 18.1045 126.768C18.2218 126.576 18.2805 126.368 18.2805 126.144C18.2805 125.904 18.2218 125.691 18.1045 125.504C17.9871 125.312 17.8298 125.163 17.6325 125.056C17.4351 124.949 17.2111 124.896 16.9605 124.896C16.7098 124.896 16.4858 124.949 16.2885 125.056C16.0911 125.163 15.9365 125.312 15.8245 125.504C15.7125 125.691 15.6565 125.907 15.6565 126.152C15.6565 126.531 15.7791 126.835 16.0245 127.064C16.2751 127.288 16.5871 127.4 16.9605 127.4Z" fill="#5B5B5B"/>
<path d="M43.9678 33.356L41.0398 30.596L43.9678 27.824H45.2518L42.3118 30.596L45.2518 33.356H43.9678ZM49.7281 35.144C49.1601 35.144 48.6481 35.016 48.1921 34.76C47.7441 34.496 47.3881 34.132 47.1241 33.668C46.8681 33.196 46.7401 32.648 46.7401 32.024C46.7401 31.4 46.8681 30.856 47.1241 30.392C47.3881 29.92 47.7441 29.556 48.1921 29.3C48.6481 29.036 49.1601 28.904 49.7281 28.904C50.4321 28.904 51.0241 29.088 51.5041 29.456C51.9921 29.824 52.3001 30.316 52.4281 30.932H51.3961C51.3161 30.564 51.1201 30.28 50.8081 30.08C50.4961 29.872 50.1321 29.768 49.7161 29.768C49.3801 29.768 49.0641 29.852 48.7681 30.02C48.4721 30.188 48.2321 30.44 48.0481 30.776C47.8641 31.112 47.7721 31.528 47.7721 32.024C47.7721 32.52 47.8641 32.936 48.0481 33.272C48.2321 33.608 48.4721 33.864 48.7681 34.04C49.0641 34.208 49.3801 34.292 49.7161 34.292C50.1321 34.292 50.4961 34.192 50.8081 33.992C51.1201 33.784 51.3161 33.492 51.3961 33.116H52.4281C52.3081 33.716 52.0041 34.204 51.5161 34.58C51.0281 34.956 50.4321 35.144 49.7281 35.144ZM56.5118 35.144C55.9438 35.144 55.4398 35.016 54.9998 34.76C54.5598 34.496 54.2118 34.132 53.9558 33.668C53.7078 33.204 53.5838 32.656 53.5838 32.024C53.5838 31.4 53.7078 30.856 53.9558 30.392C54.2038 29.92 54.5478 29.556 54.9878 29.3C55.4358 29.036 55.9518 28.904 56.5358 28.904C57.1118 28.904 57.6078 29.036 58.0238 29.3C58.4478 29.556 58.7718 29.896 58.9958 30.32C59.2198 30.744 59.3318 31.2 59.3318 31.688C59.3318 31.776 59.3278 31.864 59.3198 31.952C59.3198 32.04 59.3198 32.14 59.3198 32.252H54.5798C54.6038 32.708 54.7078 33.088 54.8918 33.392C55.0838 33.688 55.3198 33.912 55.5998 34.064C55.8878 34.216 56.1918 34.292 56.5118 34.292C56.9278 34.292 57.2758 34.196 57.5558 34.004C57.8358 33.812 58.0398 33.552 58.1678 33.224H59.1638C59.0038 33.776 58.6958 34.236 58.2398 34.604C57.7918 34.964 57.2158 35.144 56.5118 35.144ZM56.5118 29.756C56.0318 29.756 55.6038 29.904 55.2278 30.2C54.8598 30.488 54.6478 30.912 54.5918 31.472H58.3358C58.3118 30.936 58.1278 30.516 57.7838 30.212C57.4398 29.908 57.0158 29.756 56.5118 29.756ZM60.6678 35V29.048H61.5798L61.6398 30.116C61.8318 29.74 62.1078 29.444 62.4678 29.228C62.8278 29.012 63.2358 28.904 63.6918 28.904C64.3958 28.904 64.9558 29.12 65.3718 29.552C65.7958 29.976 66.0078 30.632 66.0078 31.52V35H64.9998V31.628C64.9998 30.388 64.4878 29.768 63.4638 29.768C62.9518 29.768 62.5238 29.956 62.1798 30.332C61.8438 30.7 61.6758 31.228 61.6758 31.916V35H60.6678ZM69.887 35C69.343 35 68.915 34.868 68.603 34.604C68.291 34.34 68.135 33.864 68.135 33.176V29.9H67.103V29.048H68.135L68.267 27.62H69.143V29.048H70.895V29.9H69.143V33.176C69.143 33.552 69.219 33.808 69.371 33.944C69.523 34.072 69.791 34.136 70.175 34.136H70.799V35H69.887ZM74.6876 35.144C74.1196 35.144 73.6156 35.016 73.1756 34.76C72.7356 34.496 72.3876 34.132 72.1316 33.668C71.8836 33.204 71.7596 32.656 71.7596 32.024C71.7596 31.4 71.8836 30.856 72.1316 30.392C72.3796 29.92 72.7236 29.556 73.1636 29.3C73.6116 29.036 74.1276 28.904 74.7116 28.904C75.2876 28.904 75.7836 29.036 76.1996 29.3C76.6236 29.556 76.9476 29.896 77.1716 30.32C77.3956 30.744 77.5076 31.2 77.5076 31.688C77.5076 31.776 77.5036 31.864 77.4956 31.952C77.4956 32.04 77.4956 32.14 77.4956 32.252H72.7556C72.7796 32.708 72.8836 33.088 73.0676 33.392C73.2596 33.688 73.4956 33.912 73.7756 34.064C74.0636 34.216 74.3676 34.292 74.6876 34.292C75.1036 34.292 75.4516 34.196 75.7316 34.004C76.0116 33.812 76.2156 33.552 76.3436 33.224H77.3396C77.1796 33.776 76.8716 34.236 76.4156 34.604C75.9676 34.964 75.3916 35.144 74.6876 35.144ZM74.6876 29.756C74.2076 29.756 73.7796 29.904 73.4036 30.2C73.0356 30.488 72.8236 30.912 72.7676 31.472H76.5116C76.4876 30.936 76.3036 30.516 75.9596 30.212C75.6156 29.908 75.1916 29.756 74.6876 29.756ZM78.8436 35V29.048H79.7556L79.8396 30.188C80.0236 29.796 80.3036 29.484 80.6796 29.252C81.0556 29.02 81.5196 28.904 82.0716 28.904V29.96H81.7956C81.4436 29.96 81.1196 30.024 80.8236 30.152C80.5276 30.272 80.2916 30.48 80.1156 30.776C79.9396 31.072 79.8516 31.48 79.8516 32V35H78.8436ZM83.287 33.356L86.227 30.596L83.287 27.824H84.571L87.499 30.596L84.571 33.356H83.287ZM96.3866 35V29.048H97.2986L97.3826 30.188C97.5666 29.796 97.8466 29.484 98.2226 29.252C98.5986 29.02 99.0626 28.904 99.6146 28.904V29.96H99.3386C98.9866 29.96 98.6626 30.024 98.3666 30.152C98.0706 30.272 97.8346 30.48 97.6586 30.776C97.4826 31.072 97.3946 31.48 97.3946 32V35H96.3866ZM66.1983 58.356L63.2703 55.596L66.1983 52.824H67.4823L64.5423 55.596L67.4823 58.356H66.1983ZM69.2225 60V51.36H70.2305V55.068C70.4305 54.7 70.7145 54.416 71.0825 54.216C71.4505 54.008 71.8505 53.904 72.2825 53.904C72.9705 53.904 73.5225 54.12 73.9385 54.552C74.3545 54.976 74.5625 55.632 74.5625 56.52V60H73.5665V56.628C73.5665 55.388 73.0665 54.768 72.0665 54.768C71.5465 54.768 71.1105 54.956 70.7585 55.332C70.4065 55.7 70.2305 56.228 70.2305 56.916V60H69.2225ZM76.9777 60V52.728L75.6217 53.028V52.332L77.3137 51.6H77.9977V60H76.9777ZM85.1666 60.144C84.4546 60.144 83.8626 59.964 83.3906 59.604C82.9186 59.244 82.6426 58.756 82.5626 58.14H83.5946C83.6586 58.452 83.8226 58.724 84.0866 58.956C84.3586 59.18 84.7226 59.292 85.1786 59.292C85.6026 59.292 85.9146 59.204 86.1146 59.028C86.3146 58.844 86.4146 58.628 86.4146 58.38C86.4146 58.02 86.2826 57.78 86.0186 57.66C85.7626 57.54 85.3986 57.432 84.9266 57.336C84.6066 57.272 84.2866 57.18 83.9666 57.06C83.6466 56.94 83.3786 56.772 83.1626 56.556C82.9466 56.332 82.8386 56.04 82.8386 55.68C82.8386 55.16 83.0306 54.736 83.4146 54.408C83.8066 54.072 84.3346 53.904 84.9986 53.904C85.6306 53.904 86.1466 54.064 86.5466 54.384C86.9546 54.696 87.1906 55.144 87.2546 55.728H86.2586C86.2186 55.424 86.0866 55.188 85.8626 55.02C85.6466 54.844 85.3546 54.756 84.9866 54.756C84.6266 54.756 84.3466 54.832 84.1466 54.984C83.9546 55.136 83.8586 55.336 83.8586 55.584C83.8586 55.824 83.9826 56.012 84.2306 56.148C84.4866 56.284 84.8306 56.4 85.2626 56.496C85.6306 56.576 85.9786 56.676 86.3066 56.796C86.6426 56.908 86.9146 57.08 87.1226 57.312C87.3386 57.536 87.4466 57.864 87.4466 58.296C87.4546 58.832 87.2506 59.276 86.8346 59.628C86.4266 59.972 85.8706 60.144 85.1666 60.144ZM90.9691 60C90.4251 60 89.9971 59.868 89.6851 59.604C89.3731 59.34 89.2171 58.864 89.2171 58.176V54.9H88.1851V54.048H89.2171L89.3491 52.62H90.2251V54.048H91.9771V54.9H90.2251V58.176C90.2251 58.552 90.3011 58.808 90.4531 58.944C90.6051 59.072 90.8731 59.136 91.2571 59.136H91.8811V60H90.9691ZM93.9057 62.64L95.3817 59.424H95.0337L92.6697 54.048H93.7617L95.7297 58.68L97.8177 54.048H98.8617L94.9617 62.64H93.9057ZM99.9257 60V51.36H100.934V60H99.9257ZM105.262 60.144C104.694 60.144 104.19 60.016 103.75 59.76C103.31 59.496 102.962 59.132 102.706 58.668C102.458 58.204 102.334 57.656 102.334 57.024C102.334 56.4 102.458 55.856 102.706 55.392C102.954 54.92 103.298 54.556 103.738 54.3C104.186 54.036 104.702 53.904 105.286 53.904C105.862 53.904 106.358 54.036 106.774 54.3C107.198 54.556 107.522 54.896 107.746 55.32C107.97 55.744 108.082 56.2 108.082 56.688C108.082 56.776 108.078 56.864 108.07 56.952C108.07 57.04 108.07 57.14 108.07 57.252H103.33C103.354 57.708 103.458 58.088 103.642 58.392C103.834 58.688 104.07 58.912 104.35 59.064C104.638 59.216 104.942 59.292 105.262 59.292C105.678 59.292 106.026 59.196 106.306 59.004C106.586 58.812 106.79 58.552 106.918 58.224H107.914C107.754 58.776 107.446 59.236 106.99 59.604C106.542 59.964 105.966 60.144 105.262 60.144ZM105.262 54.756C104.782 54.756 104.354 54.904 103.978 55.2C103.61 55.488 103.398 55.912 103.342 56.472H107.086C107.062 55.936 106.878 55.516 106.534 55.212C106.19 54.908 105.766 54.756 105.262 54.756ZM109.346 55.692V54.828H114.134V55.692H109.346ZM109.346 58.188V57.324H114.134V58.188H109.346ZM117.031 53.304L116.899 50.94H117.847L117.739 53.304H117.031ZM115.471 53.304L115.339 50.94H116.287L116.167 53.304H115.471ZM119.457 60V54.9H118.557V54.048H119.457V53.016C119.457 52.44 119.601 52.02 119.889 51.756C120.177 51.492 120.597 51.36 121.149 51.36H121.749V52.224H121.305C121.001 52.224 120.785 52.288 120.657 52.416C120.529 52.536 120.465 52.744 120.465 53.04V54.048H121.929V54.9H120.465V60H119.457ZM125.606 60.144C125.046 60.144 124.542 60.016 124.094 59.76C123.646 59.504 123.29 59.144 123.026 58.68C122.77 58.208 122.642 57.656 122.642 57.024C122.642 56.392 122.774 55.844 123.038 55.38C123.302 54.908 123.658 54.544 124.106 54.288C124.562 54.032 125.07 53.904 125.63 53.904C126.19 53.904 126.694 54.032 127.142 54.288C127.59 54.544 127.942 54.908 128.198 55.38C128.462 55.844 128.594 56.392 128.594 57.024C128.594 57.656 128.462 58.208 128.198 58.68C127.934 59.144 127.574 59.504 127.118 59.76C126.67 60.016 126.166 60.144 125.606 60.144ZM125.606 59.28C125.95 59.28 126.27 59.196 126.566 59.028C126.862 58.86 127.102 58.608 127.286 58.272C127.47 57.936 127.562 57.52 127.562 57.024C127.562 56.528 127.47 56.112 127.286 55.776C127.11 55.44 126.874 55.188 126.578 55.02C126.282 54.852 125.966 54.768 125.63 54.768C125.286 54.768 124.966 54.852 124.67 55.02C124.374 55.188 124.134 55.44 123.95 55.776C123.766 56.112 123.674 56.528 123.674 57.024C123.674 57.52 123.766 57.936 123.95 58.272C124.134 58.608 124.37 58.86 124.658 59.028C124.954 59.196 125.27 59.28 125.606 59.28ZM129.996 60V54.048H130.908L130.968 55.116C131.16 54.74 131.436 54.444 131.796 54.228C132.156 54.012 132.564 53.904 133.02 53.904C133.724 53.904 134.284 54.12 134.7 54.552C135.124 54.976 135.336 55.632 135.336 56.52V60H134.328V56.628C134.328 55.388 133.816 54.768 132.792 54.768C132.28 54.768 131.852 54.956 131.508 55.332C131.172 55.7 131.004 56.228 131.004 56.916V60H129.996ZM139.215 60C138.671 60 138.243 59.868 137.931 59.604C137.619 59.34 137.463 58.864 137.463 58.176V54.9H136.431V54.048H137.463L137.595 52.62H138.471V54.048H140.223V54.9H138.471V58.176C138.471 58.552 138.547 58.808 138.699 58.944C138.851 59.072 139.119 59.136 139.503 59.136H140.127V60H139.215ZM141.384 56.94V56.088H146.136V56.94H141.384ZM149.936 60.144C149.224 60.144 148.632 59.964 148.16 59.604C147.688 59.244 147.412 58.756 147.332 58.14H148.364C148.428 58.452 148.592 58.724 148.856 58.956C149.128 59.18 149.492 59.292 149.948 59.292C150.372 59.292 150.684 59.204 150.884 59.028C151.084 58.844 151.184 58.628 151.184 58.38C151.184 58.02 151.052 57.78 150.788 57.66C150.532 57.54 150.168 57.432 149.696 57.336C149.376 57.272 149.056 57.18 148.736 57.06C148.416 56.94 148.148 56.772 147.932 56.556C147.716 56.332 147.608 56.04 147.608 55.68C147.608 55.16 147.8 54.736 148.184 54.408C148.576 54.072 149.104 53.904 149.768 53.904C150.4 53.904 150.916 54.064 151.316 54.384C151.724 54.696 151.96 55.144 152.024 55.728H151.028C150.988 55.424 150.856 55.188 150.632 55.02C150.416 54.844 150.124 54.756 149.756 54.756C149.396 54.756 149.116 54.832 148.916 54.984C148.724 55.136 148.628 55.336 148.628 55.584C148.628 55.824 148.752 56.012 149 56.148C149.256 56.284 149.6 56.4 150.032 56.496C150.4 56.576 150.748 56.676 151.076 56.796C151.412 56.908 151.684 57.08 151.892 57.312C152.108 57.536 152.216 57.864 152.216 58.296C152.224 58.832 152.02 59.276 151.604 59.628C151.196 59.972 150.64 60.144 149.936 60.144ZM154.268 52.728C154.068 52.728 153.9 52.664 153.764 52.536C153.636 52.4 153.572 52.232 153.572 52.032C153.572 51.84 153.636 51.68 153.764 51.552C153.9 51.424 154.068 51.36 154.268 51.36C154.46 51.36 154.624 51.424 154.76 51.552C154.896 51.68 154.964 51.84 154.964 52.032C154.964 52.232 154.896 52.4 154.76 52.536C154.624 52.664 154.46 52.728 154.268 52.728ZM153.764 60V54.048H154.772V60H153.764ZM156.119 60V59.172L159.431 54.888H156.179V54.048H160.559V54.876L157.247 59.16H160.619V60H156.119ZM164.629 60.144C164.061 60.144 163.557 60.016 163.117 59.76C162.677 59.496 162.329 59.132 162.073 58.668C161.825 58.204 161.701 57.656 161.701 57.024C161.701 56.4 161.825 55.856 162.073 55.392C162.321 54.92 162.665 54.556 163.105 54.3C163.553 54.036 164.069 53.904 164.653 53.904C165.229 53.904 165.725 54.036 166.141 54.3C166.565 54.556 166.889 54.896 167.113 55.32C167.337 55.744 167.449 56.2 167.449 56.688C167.449 56.776 167.445 56.864 167.437 56.952C167.437 57.04 167.437 57.14 167.437 57.252H162.697C162.721 57.708 162.825 58.088 163.009 58.392C163.201 58.688 163.437 58.912 163.717 59.064C164.005 59.216 164.309 59.292 164.629 59.292C165.045 59.292 165.393 59.196 165.673 59.004C165.953 58.812 166.157 58.552 166.285 58.224H167.281C167.121 58.776 166.813 59.236 166.357 59.604C165.909 59.964 165.333 60.144 164.629 60.144ZM164.629 54.756C164.149 54.756 163.721 54.904 163.345 55.2C162.977 55.488 162.765 55.912 162.709 56.472H166.453C166.429 55.936 166.245 55.516 165.901 55.212C165.557 54.908 165.133 54.756 164.629 54.756ZM169.133 60.06C168.933 60.06 168.765 59.996 168.629 59.868C168.501 59.732 168.437 59.568 168.437 59.376C168.437 59.184 168.501 59.024 168.629 58.896C168.765 58.76 168.933 58.692 169.133 58.692C169.325 58.692 169.485 58.76 169.613 58.896C169.749 59.024 169.817 59.184 169.817 59.376C169.817 59.568 169.749 59.732 169.613 59.868C169.485 59.996 169.325 60.06 169.133 60.06ZM169.133 55.272C168.933 55.272 168.765 55.208 168.629 55.08C168.501 54.944 168.437 54.78 168.437 54.588C168.437 54.396 168.501 54.236 168.629 54.108C168.765 53.972 168.933 53.904 169.133 53.904C169.325 53.904 169.485 53.972 169.613 54.108C169.749 54.236 169.817 54.396 169.817 54.588C169.817 54.78 169.749 54.944 169.613 55.08C169.485 55.208 169.325 55.272 169.133 55.272ZM171.104 60V59.292C171.672 58.844 172.208 58.392 172.712 57.936C173.224 57.472 173.676 57.016 174.068 56.568C174.468 56.12 174.78 55.68 175.004 55.248C175.236 54.816 175.352 54.4 175.352 54C175.352 53.704 175.3 53.428 175.196 53.172C175.1 52.916 174.94 52.712 174.716 52.56C174.492 52.4 174.188 52.32 173.804 52.32C173.436 52.32 173.128 52.404 172.88 52.572C172.632 52.732 172.444 52.948 172.316 53.22C172.196 53.492 172.136 53.784 172.136 54.096H171.164C171.164 53.544 171.28 53.072 171.512 52.68C171.744 52.28 172.06 51.976 172.46 51.768C172.86 51.56 173.312 51.456 173.816 51.456C174.56 51.456 175.168 51.668 175.64 52.092C176.12 52.508 176.36 53.132 176.36 53.964C176.36 54.46 176.236 54.952 175.988 55.44C175.74 55.92 175.424 56.388 175.04 56.844C174.656 57.292 174.244 57.712 173.804 58.104C173.372 58.496 172.968 58.848 172.592 59.16H176.648V60H171.104ZM180.959 60.144C180.383 60.144 179.883 60.04 179.459 59.832C179.035 59.624 178.695 59.34 178.439 58.98C178.191 58.612 178.039 58.196 177.983 57.732H178.967C179.063 58.196 179.287 58.572 179.639 58.86C179.991 59.14 180.435 59.28 180.971 59.28C181.371 59.28 181.715 59.188 182.003 59.004C182.291 58.812 182.511 58.556 182.663 58.236C182.823 57.916 182.903 57.56 182.903 57.168C182.903 56.544 182.727 56.04 182.375 55.656C182.023 55.272 181.567 55.08 181.007 55.08C180.543 55.08 180.147 55.184 179.819 55.392C179.491 55.6 179.251 55.872 179.099 56.208H178.139L178.859 51.6H183.263V52.476H179.639L179.147 55.032C179.339 54.8 179.603 54.608 179.939 54.456C180.283 54.304 180.675 54.228 181.115 54.228C181.667 54.228 182.147 54.356 182.555 54.612C182.971 54.868 183.295 55.216 183.527 55.656C183.759 56.096 183.875 56.596 183.875 57.156C183.875 57.692 183.759 58.188 183.527 58.644C183.303 59.1 182.971 59.464 182.531 59.736C182.099 60.008 181.575 60.144 180.959 60.144ZM185.391 62.64V54.048H186.303L186.399 55.032C186.591 54.744 186.863 54.484 187.215 54.252C187.575 54.02 188.031 53.904 188.583 53.904C189.175 53.904 189.691 54.04 190.131 54.312C190.571 54.584 190.911 54.956 191.151 55.428C191.399 55.9 191.523 56.436 191.523 57.036C191.523 57.636 191.399 58.172 191.151 58.644C190.911 59.108 190.567 59.476 190.119 59.748C189.679 60.012 189.163 60.144 188.571 60.144C188.083 60.144 187.647 60.044 187.263 59.844C186.887 59.644 186.599 59.364 186.399 59.004V62.64H185.391ZM188.463 59.268C188.863 59.268 189.215 59.176 189.519 58.992C189.823 58.8 190.063 58.536 190.239 58.2C190.415 57.864 190.503 57.472 190.503 57.024C190.503 56.576 190.415 56.184 190.239 55.848C190.063 55.512 189.823 55.252 189.519 55.068C189.215 54.876 188.863 54.78 188.463 54.78C188.063 54.78 187.711 54.876 187.407 55.068C187.103 55.252 186.863 55.512 186.687 55.848C186.511 56.184 186.423 56.576 186.423 57.024C186.423 57.472 186.511 57.864 186.687 58.2C186.863 58.536 187.103 58.8 187.407 58.992C187.711 59.176 188.063 59.268 188.463 59.268ZM192.068 60L194.132 57.024L192.068 54.048H193.16L194.828 56.508L196.508 54.048H197.588L195.524 57.024L197.588 60H196.508L194.828 57.54L193.16 60H192.068ZM199.292 55.272C199.092 55.272 198.924 55.208 198.788 55.08C198.66 54.944 198.596 54.78 198.596 54.588C198.596 54.396 198.66 54.236 198.788 54.108C198.924 53.972 199.092 53.904 199.292 53.904C199.484 53.904 199.644 53.972 199.772 54.108C199.908 54.236 199.976 54.396 199.976 54.588C199.976 54.78 199.908 54.944 199.772 55.08C199.644 55.208 199.484 55.272 199.292 55.272ZM198.092 61.428L198.788 58.776H199.832L198.788 61.428H198.092ZM201.64 60V54.9H200.74V54.048H201.64V53.016C201.64 52.44 201.784 52.02 202.072 51.756C202.36 51.492 202.78 51.36 203.332 51.36H203.932V52.224H203.488C203.184 52.224 202.968 52.288 202.84 52.416C202.712 52.536 202.648 52.744 202.648 53.04V54.048H204.112V54.9H202.648V60H201.64ZM207.79 60.144C207.23 60.144 206.726 60.016 206.278 59.76C205.83 59.504 205.474 59.144 205.21 58.68C204.954 58.208 204.826 57.656 204.826 57.024C204.826 56.392 204.958 55.844 205.222 55.38C205.486 54.908 205.842 54.544 206.29 54.288C206.746 54.032 207.254 53.904 207.814 53.904C208.374 53.904 208.878 54.032 209.326 54.288C209.774 54.544 210.126 54.908 210.382 55.38C210.646 55.844 210.778 56.392 210.778 57.024C210.778 57.656 210.646 58.208 210.382 58.68C210.118 59.144 209.758 59.504 209.302 59.76C208.854 60.016 208.35 60.144 207.79 60.144ZM207.79 59.28C208.134 59.28 208.454 59.196 208.75 59.028C209.046 58.86 209.286 58.608 209.47 58.272C209.654 57.936 209.746 57.52 209.746 57.024C209.746 56.528 209.654 56.112 209.47 55.776C209.294 55.44 209.058 55.188 208.762 55.02C208.466 54.852 208.15 54.768 207.814 54.768C207.47 54.768 207.15 54.852 206.854 55.02C206.558 55.188 206.318 55.44 206.134 55.776C205.95 56.112 205.858 56.528 205.858 57.024C205.858 57.52 205.95 57.936 206.134 58.272C206.318 58.608 206.554 58.86 206.842 59.028C207.138 59.196 207.454 59.28 207.79 59.28ZM212.18 60V54.048H213.092L213.152 55.116C213.344 54.74 213.62 54.444 213.98 54.228C214.34 54.012 214.748 53.904 215.204 53.904C215.908 53.904 216.468 54.12 216.884 54.552C217.308 54.976 217.52 55.632 217.52 56.52V60H216.512V56.628C216.512 55.388 216 54.768 214.976 54.768C214.464 54.768 214.036 54.956 213.692 55.332C213.356 55.7 213.188 56.228 213.188 56.916V60H212.18ZM221.399 60C220.855 60 220.427 59.868 220.115 59.604C219.803 59.34 219.647 58.864 219.647 58.176V54.9H218.615V54.048H219.647L219.779 52.62H220.655V54.048H222.407V54.9H220.655V58.176C220.655 58.552 220.731 58.808 220.883 58.944C221.035 59.072 221.303 59.136 221.687 59.136H222.311V60H221.399ZM223.567 56.94V56.088H228.319V56.94H223.567ZM232.12 60.144C231.408 60.144 230.816 59.964 230.344 59.604C229.872 59.244 229.596 58.756 229.516 58.14H230.548C230.612 58.452 230.776 58.724 231.04 58.956C231.312 59.18 231.676 59.292 232.132 59.292C232.556 59.292 232.868 59.204 233.068 59.028C233.268 58.844 233.368 58.628 233.368 58.38C233.368 58.02 233.236 57.78 232.972 57.66C232.716 57.54 232.352 57.432 231.88 57.336C231.56 57.272 231.24 57.18 230.92 57.06C230.6 56.94 230.332 56.772 230.116 56.556C229.9 56.332 229.792 56.04 229.792 55.68C229.792 55.16 229.984 54.736 230.368 54.408C230.76 54.072 231.288 53.904 231.952 53.904C232.584 53.904 233.1 54.064 233.5 54.384C233.908 54.696 234.144 55.144 234.208 55.728H233.212C233.172 55.424 233.04 55.188 232.816 55.02C232.6 54.844 232.308 54.756 231.94 54.756C231.58 54.756 231.3 54.832 231.1 54.984C230.908 55.136 230.812 55.336 230.812 55.584C230.812 55.824 230.936 56.012 231.184 56.148C231.44 56.284 231.784 56.4 232.216 56.496C232.584 56.576 232.932 56.676 233.26 56.796C233.596 56.908 233.868 57.08 234.076 57.312C234.292 57.536 234.4 57.864 234.4 58.296C234.408 58.832 234.204 59.276 233.788 59.628C233.38 59.972 232.824 60.144 232.12 60.144ZM237.922 60C237.378 60 236.95 59.868 236.638 59.604C236.326 59.34 236.17 58.864 236.17 58.176V54.9H235.138V54.048H236.17L236.302 52.62H237.178V54.048H238.93V54.9H237.178V58.176C237.178 58.552 237.254 58.808 237.406 58.944C237.558 59.072 237.826 59.136 238.21 59.136H238.834V60H237.922ZM240.859 62.64L242.335 59.424H241.987L239.623 54.048H240.715L242.683 58.68L244.771 54.048H245.815L241.915 62.64H240.859ZM246.879 60V51.36H247.887V60H246.879ZM252.215 60.144C251.647 60.144 251.143 60.016 250.703 59.76C250.263 59.496 249.915 59.132 249.659 58.668C249.411 58.204 249.287 57.656 249.287 57.024C249.287 56.4 249.411 55.856 249.659 55.392C249.907 54.92 250.251 54.556 250.691 54.3C251.139 54.036 251.655 53.904 252.239 53.904C252.815 53.904 253.311 54.036 253.727 54.3C254.151 54.556 254.475 54.896 254.699 55.32C254.923 55.744 255.035 56.2 255.035 56.688C255.035 56.776 255.031 56.864 255.023 56.952C255.023 57.04 255.023 57.14 255.023 57.252H250.283C250.307 57.708 250.411 58.088 250.595 58.392C250.787 58.688 251.023 58.912 251.303 59.064C251.591 59.216 251.895 59.292 252.215 59.292C252.631 59.292 252.979 59.196 253.259 59.004C253.539 58.812 253.743 58.552 253.871 58.224H254.867C254.707 58.776 254.399 59.236 253.943 59.604C253.495 59.964 252.919 60.144 252.215 60.144ZM252.215 54.756C251.735 54.756 251.307 54.904 250.931 55.2C250.563 55.488 250.351 55.912 250.295 56.472H254.039C254.015 55.936 253.831 55.516 253.487 55.212C253.143 54.908 252.719 54.756 252.215 54.756ZM256.719 60.06C256.519 60.06 256.351 59.996 256.215 59.868C256.087 59.732 256.023 59.568 256.023 59.376C256.023 59.184 256.087 59.024 256.215 58.896C256.351 58.76 256.519 58.692 256.719 58.692C256.911 58.692 257.071 58.76 257.199 58.896C257.335 59.024 257.403 59.184 257.403 59.376C257.403 59.568 257.335 59.732 257.199 59.868C257.071 59.996 256.911 60.06 256.719 60.06ZM256.719 55.272C256.519 55.272 256.351 55.208 256.215 55.08C256.087 54.944 256.023 54.78 256.023 54.588C256.023 54.396 256.087 54.236 256.215 54.108C256.351 53.972 256.519 53.904 256.719 53.904C256.911 53.904 257.071 53.972 257.199 54.108C257.335 54.236 257.403 54.396 257.403 54.588C257.403 54.78 257.335 54.944 257.199 55.08C257.071 55.208 256.911 55.272 256.719 55.272ZM259.374 52.728C259.174 52.728 259.006 52.664 258.87 52.536C258.742 52.4 258.678 52.232 258.678 52.032C258.678 51.84 258.742 51.68 258.87 51.552C259.006 51.424 259.174 51.36 259.374 51.36C259.566 51.36 259.73 51.424 259.866 51.552C260.002 51.68 260.07 51.84 260.07 52.032C260.07 52.232 260.002 52.4 259.866 52.536C259.73 52.664 259.566 52.728 259.374 52.728ZM258.87 60V54.048H259.878V60H258.87ZM263.985 60C263.441 60 263.013 59.868 262.701 59.604C262.389 59.34 262.233 58.864 262.233 58.176V54.9H261.201V54.048H262.233L262.365 52.62H263.241V54.048H264.993V54.9H263.241V58.176C263.241 58.552 263.317 58.808 263.469 58.944C263.621 59.072 263.889 59.136 264.273 59.136H264.897V60H263.985ZM268.253 60.144C267.757 60.144 267.345 60.06 267.017 59.892C266.689 59.724 266.445 59.5 266.285 59.22C266.125 58.94 266.045 58.636 266.045 58.308C266.045 57.7 266.277 57.232 266.741 56.904C267.205 56.576 267.837 56.412 268.637 56.412H270.245V56.34C270.245 55.82 270.109 55.428 269.837 55.164C269.565 54.892 269.201 54.756 268.745 54.756C268.353 54.756 268.013 54.856 267.725 55.056C267.445 55.248 267.269 55.532 267.197 55.908H266.165C266.205 55.476 266.349 55.112 266.597 54.816C266.853 54.52 267.169 54.296 267.545 54.144C267.921 53.984 268.321 53.904 268.745 53.904C269.577 53.904 270.201 54.128 270.617 54.576C271.041 55.016 271.253 55.604 271.253 56.34V60H270.353L270.293 58.932C270.125 59.268 269.877 59.556 269.549 59.796C269.229 60.028 268.797 60.144 268.253 60.144ZM268.409 59.292C268.793 59.292 269.121 59.192 269.393 58.992C269.673 58.792 269.885 58.532 270.029 58.212C270.173 57.892 270.245 57.556 270.245 57.204V57.192H268.721C268.129 57.192 267.709 57.296 267.461 57.504C267.221 57.704 267.101 57.956 267.101 58.26C267.101 58.572 267.213 58.824 267.437 59.016C267.669 59.2 267.993 59.292 268.409 59.292ZM272.766 60V51.36H273.774V60H272.766ZM276.038 52.728C275.838 52.728 275.67 52.664 275.534 52.536C275.406 52.4 275.342 52.232 275.342 52.032C275.342 51.84 275.406 51.68 275.534 51.552C275.67 51.424 275.838 51.36 276.038 51.36C276.23 51.36 276.394 51.424 276.53 51.552C276.666 51.68 276.734 51.84 276.734 52.032C276.734 52.232 276.666 52.4 276.53 52.536C276.394 52.664 276.23 52.728 276.038 52.728ZM275.534 60V54.048H276.542V60H275.534ZM281.033 60.144C280.465 60.144 279.953 60.016 279.497 59.76C279.049 59.496 278.693 59.132 278.429 58.668C278.173 58.196 278.045 57.648 278.045 57.024C278.045 56.4 278.173 55.856 278.429 55.392C278.693 54.92 279.049 54.556 279.497 54.3C279.953 54.036 280.465 53.904 281.033 53.904C281.737 53.904 282.329 54.088 282.809 54.456C283.297 54.824 283.605 55.316 283.733 55.932H282.701C282.621 55.564 282.425 55.28 282.113 55.08C281.801 54.872 281.437 54.768 281.021 54.768C280.685 54.768 280.369 54.852 280.073 55.02C279.777 55.188 279.537 55.44 279.353 55.776C279.169 56.112 279.077 56.528 279.077 57.024C279.077 57.52 279.169 57.936 279.353 58.272C279.537 58.608 279.777 58.864 280.073 59.04C280.369 59.208 280.685 59.292 281.021 59.292C281.437 59.292 281.801 59.192 282.113 58.992C282.425 58.784 282.621 58.492 282.701 58.116H283.733C283.613 58.716 283.309 59.204 282.821 59.58C282.333 59.956 281.737 60.144 281.033 60.144ZM285.789 55.272C285.589 55.272 285.421 55.208 285.285 55.08C285.157 54.944 285.093 54.78 285.093 54.588C285.093 54.396 285.157 54.236 285.285 54.108C285.421 53.972 285.589 53.904 285.789 53.904C285.981 53.904 286.141 53.972 286.269 54.108C286.405 54.236 286.473 54.396 286.473 54.588C286.473 54.78 286.405 54.944 286.269 55.08C286.141 55.208 285.981 55.272 285.789 55.272ZM284.589 61.428L285.285 58.776H286.329L285.285 61.428H284.589ZM289.12 53.304L288.988 50.94H289.936L289.828 53.304H289.12ZM287.56 53.304L287.428 50.94H288.376L288.256 53.304H287.56ZM291.307 58.356L294.247 55.596L291.307 52.824H292.591L295.519 55.596L292.591 58.356H291.307ZM79.6094 85.144C78.8254 85.144 78.1374 84.964 77.5454 84.604C76.9534 84.236 76.4934 83.728 76.1654 83.08C75.8374 82.424 75.6734 81.668 75.6734 80.812C75.6734 79.956 75.8374 79.2 76.1654 78.544C76.5014 77.888 76.9734 77.376 77.5814 77.008C78.1974 76.64 78.9214 76.456 79.7534 76.456C80.6974 76.456 81.4814 76.684 82.1054 77.14C82.7374 77.596 83.1454 78.224 83.3294 79.024H82.1654C82.0534 78.52 81.7854 78.12 81.3614 77.824C80.9454 77.528 80.4094 77.38 79.7534 77.38C79.1374 77.38 78.6014 77.52 78.1454 77.8C77.6894 78.072 77.3334 78.464 77.0774 78.976C76.8294 79.488 76.7054 80.1 76.7054 80.812C76.7054 81.524 76.8294 82.136 77.0774 82.648C77.3254 83.16 77.6694 83.556 78.1094 83.836C78.5494 84.108 79.0614 84.244 79.6454 84.244C80.5414 84.244 81.2174 83.984 81.6734 83.464C82.1294 82.936 82.3894 82.216 82.4534 81.304H80.0294V80.512H83.4854V85H82.5614L82.4774 83.62C82.1734 84.108 81.8014 84.484 81.3614 84.748C80.9214 85.012 80.3374 85.144 79.6094 85.144ZM87.6954 85.144C87.1274 85.144 86.6234 85.016 86.1834 84.76C85.7434 84.496 85.3954 84.132 85.1394 83.668C84.8914 83.204 84.7674 82.656 84.7674 82.024C84.7674 81.4 84.8914 80.856 85.1394 80.392C85.3874 79.92 85.7314 79.556 86.1714 79.3C86.6194 79.036 87.1354 78.904 87.7194 78.904C88.2954 78.904 88.7914 79.036 89.2074 79.3C89.6314 79.556 89.9554 79.896 90.1794 80.32C90.4034 80.744 90.5154 81.2 90.5154 81.688C90.5154 81.776 90.5114 81.864 90.5034 81.952C90.5034 82.04 90.5034 82.14 90.5034 82.252H85.7634C85.7874 82.708 85.8914 83.088 86.0754 83.392C86.2674 83.688 86.5034 83.912 86.7834 84.064C87.0714 84.216 87.3754 84.292 87.6954 84.292C88.1114 84.292 88.4594 84.196 88.7394 84.004C89.0194 83.812 89.2234 83.552 89.3514 83.224H90.3474C90.1874 83.776 89.8794 84.236 89.4234 84.604C88.9754 84.964 88.3994 85.144 87.6954 85.144ZM87.6954 79.756C87.2154 79.756 86.7874 79.904 86.4114 80.2C86.0434 80.488 85.8314 80.912 85.7754 81.472H89.5194C89.4954 80.936 89.3114 80.516 88.9674 80.212C88.6234 79.908 88.1994 79.756 87.6954 79.756ZM94.5274 85.144C93.9594 85.144 93.4554 85.016 93.0154 84.76C92.5754 84.496 92.2274 84.132 91.9714 83.668C91.7234 83.204 91.5994 82.656 91.5994 82.024C91.5994 81.4 91.7234 80.856 91.9714 80.392C92.2194 79.92 92.5634 79.556 93.0034 79.3C93.4514 79.036 93.9674 78.904 94.5514 78.904C95.1274 78.904 95.6234 79.036 96.0394 79.3C96.4634 79.556 96.7874 79.896 97.0114 80.32C97.2354 80.744 97.3474 81.2 97.3474 81.688C97.3474 81.776 97.3434 81.864 97.3354 81.952C97.3354 82.04 97.3354 82.14 97.3354 82.252H92.5954C92.6194 82.708 92.7234 83.088 92.9074 83.392C93.0994 83.688 93.3354 83.912 93.6154 84.064C93.9034 84.216 94.2074 84.292 94.5274 84.292C94.9434 84.292 95.2914 84.196 95.5714 84.004C95.8514 83.812 96.0554 83.552 96.1834 83.224H97.1794C97.0194 83.776 96.7114 84.236 96.2554 84.604C95.8074 84.964 95.2314 85.144 94.5274 85.144ZM94.5274 79.756C94.0474 79.756 93.6194 79.904 93.2434 80.2C92.8754 80.488 92.6634 80.912 92.6074 81.472H96.3514C96.3274 80.936 96.1434 80.516 95.7994 80.212C95.4554 79.908 95.0314 79.756 94.5274 79.756ZM98.6835 85V76.36H99.6915V81.556L102.127 79.048H103.363L100.723 81.736L103.699 85H102.415L99.6915 81.916V85H98.6835ZM106.659 85.144C105.947 85.144 105.355 84.964 104.883 84.604C104.411 84.244 104.135 83.756 104.055 83.14H105.087C105.151 83.452 105.315 83.724 105.579 83.956C105.851 84.18 106.215 84.292 106.671 84.292C107.095 84.292 107.407 84.204 107.607 84.028C107.807 83.844 107.907 83.628 107.907 83.38C107.907 83.02 107.775 82.78 107.511 82.66C107.255 82.54 106.891 82.432 106.419 82.336C106.099 82.272 105.779 82.18 105.459 82.06C105.139 81.94 104.871 81.772 104.655 81.556C104.439 81.332 104.331 81.04 104.331 80.68C104.331 80.16 104.523 79.736 104.907 79.408C105.299 79.072 105.827 78.904 106.491 78.904C107.123 78.904 107.639 79.064 108.039 79.384C108.447 79.696 108.683 80.144 108.747 80.728H107.751C107.711 80.424 107.579 80.188 107.355 80.02C107.139 79.844 106.847 79.756 106.479 79.756C106.119 79.756 105.839 79.832 105.639 79.984C105.447 80.136 105.351 80.336 105.351 80.584C105.351 80.824 105.475 81.012 105.723 81.148C105.979 81.284 106.323 81.4 106.755 81.496C107.123 81.576 107.471 81.676 107.799 81.796C108.135 81.908 108.407 82.08 108.615 82.312C108.831 82.536 108.939 82.864 108.939 83.296C108.947 83.832 108.743 84.276 108.327 84.628C107.919 84.972 107.363 85.144 106.659 85.144ZM110.703 85V79.9H109.803V79.048H110.703V78.016C110.703 77.44 110.847 77.02 111.135 76.756C111.423 76.492 111.843 76.36 112.395 76.36H112.995V77.224H112.551C112.247 77.224 112.031 77.288 111.903 77.416C111.775 77.536 111.711 77.744 111.711 78.04V79.048H113.175V79.9H111.711V85H110.703ZM116.853 85.144C116.293 85.144 115.789 85.016 115.341 84.76C114.893 84.504 114.537 84.144 114.273 83.68C114.017 83.208 113.889 82.656 113.889 82.024C113.889 81.392 114.021 80.844 114.285 80.38C114.549 79.908 114.905 79.544 115.353 79.288C115.809 79.032 116.317 78.904 116.877 78.904C117.437 78.904 117.941 79.032 118.389 79.288C118.837 79.544 119.189 79.908 119.445 80.38C119.709 80.844 119.841 81.392 119.841 82.024C119.841 82.656 119.709 83.208 119.445 83.68C119.181 84.144 118.821 84.504 118.365 84.76C117.917 85.016 117.413 85.144 116.853 85.144ZM116.853 84.28C117.197 84.28 117.517 84.196 117.813 84.028C118.109 83.86 118.349 83.608 118.533 83.272C118.717 82.936 118.809 82.52 118.809 82.024C118.809 81.528 118.717 81.112 118.533 80.776C118.357 80.44 118.121 80.188 117.825 80.02C117.529 79.852 117.213 79.768 116.877 79.768C116.533 79.768 116.213 79.852 115.917 80.02C115.621 80.188 115.381 80.44 115.197 80.776C115.013 81.112 114.921 81.528 114.921 82.024C114.921 82.52 115.013 82.936 115.197 83.272C115.381 83.608 115.617 83.86 115.905 84.028C116.201 84.196 116.517 84.28 116.853 84.28ZM121.242 85V79.048H122.154L122.238 80.188C122.422 79.796 122.702 79.484 123.078 79.252C123.454 79.02 123.918 78.904 124.47 78.904V79.96H124.194C123.842 79.96 123.518 80.024 123.222 80.152C122.926 80.272 122.69 80.48 122.514 80.776C122.338 81.072 122.25 81.48 122.25 82V85H121.242ZM129.273 85.144C128.489 85.144 127.801 84.964 127.209 84.604C126.617 84.236 126.157 83.728 125.829 83.08C125.501 82.424 125.337 81.668 125.337 80.812C125.337 79.956 125.501 79.2 125.829 78.544C126.165 77.888 126.637 77.376 127.245 77.008C127.861 76.64 128.585 76.456 129.417 76.456C130.361 76.456 131.145 76.684 131.769 77.14C132.401 77.596 132.809 78.224 132.993 79.024H131.829C131.717 78.52 131.449 78.12 131.025 77.824C130.609 77.528 130.073 77.38 129.417 77.38C128.801 77.38 128.265 77.52 127.809 77.8C127.353 78.072 126.997 78.464 126.741 78.976C126.493 79.488 126.369 80.1 126.369 80.812C126.369 81.524 126.493 82.136 126.741 82.648C126.989 83.16 127.333 83.556 127.773 83.836C128.213 84.108 128.725 84.244 129.309 84.244C130.205 84.244 130.881 83.984 131.337 83.464C131.793 82.936 132.053 82.216 132.117 81.304H129.693V80.512H133.149V85H132.225L132.141 83.62C131.837 84.108 131.465 84.484 131.025 84.748C130.585 85.012 130.001 85.144 129.273 85.144ZM137.359 85.144C136.791 85.144 136.287 85.016 135.847 84.76C135.407 84.496 135.059 84.132 134.803 83.668C134.555 83.204 134.431 82.656 134.431 82.024C134.431 81.4 134.555 80.856 134.803 80.392C135.051 79.92 135.395 79.556 135.835 79.3C136.283 79.036 136.799 78.904 137.383 78.904C137.959 78.904 138.455 79.036 138.871 79.3C139.295 79.556 139.619 79.896 139.843 80.32C140.067 80.744 140.179 81.2 140.179 81.688C140.179 81.776 140.175 81.864 140.167 81.952C140.167 82.04 140.167 82.14 140.167 82.252H135.427C135.451 82.708 135.555 83.088 135.739 83.392C135.931 83.688 136.167 83.912 136.447 84.064C136.735 84.216 137.039 84.292 137.359 84.292C137.775 84.292 138.123 84.196 138.403 84.004C138.683 83.812 138.887 83.552 139.015 83.224H140.011C139.851 83.776 139.543 84.236 139.087 84.604C138.639 84.964 138.063 85.144 137.359 85.144ZM137.359 79.756C136.879 79.756 136.451 79.904 136.075 80.2C135.707 80.488 135.495 80.912 135.439 81.472H139.183C139.159 80.936 138.975 80.516 138.631 80.212C138.287 79.908 137.863 79.756 137.359 79.756ZM144.192 85.144C143.624 85.144 143.12 85.016 142.68 84.76C142.24 84.496 141.892 84.132 141.636 83.668C141.388 83.204 141.264 82.656 141.264 82.024C141.264 81.4 141.388 80.856 141.636 80.392C141.884 79.92 142.228 79.556 142.668 79.3C143.116 79.036 143.632 78.904 144.215 78.904C144.792 78.904 145.288 79.036 145.704 79.3C146.128 79.556 146.452 79.896 146.676 80.32C146.9 80.744 147.012 81.2 147.012 81.688C147.012 81.776 147.008 81.864 147 81.952C147 82.04 147 82.14 147 82.252H142.26C142.284 82.708 142.388 83.088 142.572 83.392C142.764 83.688 143 83.912 143.28 84.064C143.568 84.216 143.872 84.292 144.192 84.292C144.608 84.292 144.956 84.196 145.236 84.004C145.516 83.812 145.72 83.552 145.848 83.224H146.844C146.684 83.776 146.376 84.236 145.92 84.604C145.472 84.964 144.896 85.144 144.192 85.144ZM144.192 79.756C143.712 79.756 143.284 79.904 142.908 80.2C142.54 80.488 142.328 80.912 142.271 81.472H146.016C145.992 80.936 145.808 80.516 145.464 80.212C145.12 79.908 144.696 79.756 144.192 79.756ZM148.348 85V76.36H149.356V81.556L151.792 79.048H153.028L150.388 81.736L153.364 85H152.08L149.356 81.916V85H148.348ZM156.323 85.144C155.611 85.144 155.019 84.964 154.547 84.604C154.075 84.244 153.799 83.756 153.719 83.14H154.751C154.815 83.452 154.979 83.724 155.243 83.956C155.515 84.18 155.879 84.292 156.335 84.292C156.759 84.292 157.071 84.204 157.271 84.028C157.471 83.844 157.571 83.628 157.571 83.38C157.571 83.02 157.439 82.78 157.175 82.66C156.919 82.54 156.555 82.432 156.083 82.336C155.763 82.272 155.443 82.18 155.123 82.06C154.803 81.94 154.535 81.772 154.319 81.556C154.103 81.332 153.995 81.04 153.995 80.68C153.995 80.16 154.187 79.736 154.571 79.408C154.963 79.072 155.491 78.904 156.155 78.904C156.787 78.904 157.303 79.064 157.703 79.384C158.111 79.696 158.347 80.144 158.411 80.728H157.415C157.375 80.424 157.243 80.188 157.019 80.02C156.803 79.844 156.511 79.756 156.143 79.756C155.783 79.756 155.503 79.832 155.303 79.984C155.111 80.136 155.015 80.336 155.015 80.584C155.015 80.824 155.139 81.012 155.387 81.148C155.643 81.284 155.987 81.4 156.419 81.496C156.787 81.576 157.135 81.676 157.463 81.796C157.799 81.908 158.071 82.08 158.279 82.312C158.495 82.536 158.603 82.864 158.603 83.296C158.611 83.832 158.407 84.276 157.991 84.628C157.583 84.972 157.027 85.144 156.323 85.144ZM66.1983 108.356L63.2703 105.596L66.1983 102.824H67.4823L64.5423 105.596L67.4823 108.356H66.1983ZM68.7305 111.14L71.7425 100.832H72.7385L69.7265 111.14H68.7305ZM73.91 110V101.36H74.918V105.068C75.118 104.7 75.402 104.416 75.77 104.216C76.138 104.008 76.538 103.904 76.97 103.904C77.658 103.904 78.21 104.12 78.626 104.552C79.042 104.976 79.25 105.632 79.25 106.52V110H78.254V106.628C78.254 105.388 77.754 104.768 76.754 104.768C76.234 104.768 75.798 104.956 75.446 105.332C75.094 105.7 74.918 106.228 74.918 106.916V110H73.91ZM81.6652 110V102.728L80.3092 103.028V102.332L82.0012 101.6H82.6852V110H81.6652ZM84.4823 108.356L87.4223 105.596L84.4823 102.824H85.7663L88.6943 105.596L85.7663 108.356H84.4823Z" fill="black"/>
<rect x="451" y="8" width="45" height="24" rx="5" fill="#EBEBEB"/>
<path d="M464.82 23.12C464.127 23.12 463.527 22.97 463.02 22.67C462.52 22.3633 462.134 21.94 461.86 21.4C461.587 20.8533 461.45 20.2233 461.45 19.51C461.45 18.79 461.587 18.16 461.86 17.62C462.134 17.0733 462.52 16.6467 463.02 16.34C463.527 16.0333 464.127 15.88 464.82 15.88C465.64 15.88 466.31 16.08 466.83 16.48C467.35 16.88 467.68 17.44 467.82 18.16H466.64C466.547 17.7533 466.347 17.43 466.04 17.19C465.734 16.95 465.324 16.83 464.81 16.83C464.11 16.83 463.557 17.07 463.15 17.55C462.744 18.0233 462.54 18.6767 462.54 19.51C462.54 20.3367 462.744 20.9867 463.15 21.46C463.557 21.9333 464.11 22.17 464.81 22.17C465.324 22.17 465.734 22.0567 466.04 21.83C466.347 21.6033 466.547 21.2933 466.64 20.9H467.82C467.68 21.5933 467.35 22.1367 466.83 22.53C466.31 22.9233 465.64 23.12 464.82 23.12ZM471.265 23.12C470.792 23.12 470.365 23.0133 469.985 22.8C469.612 22.58 469.315 22.2767 469.095 21.89C468.875 21.4967 468.765 21.04 468.765 20.52C468.765 20 468.875 19.5467 469.095 19.16C469.322 18.7667 469.625 18.4633 470.005 18.25C470.385 18.03 470.809 17.92 471.275 17.92C471.749 17.92 472.172 18.03 472.545 18.25C472.925 18.4633 473.225 18.7667 473.445 19.16C473.672 19.5467 473.785 20 473.785 20.52C473.785 21.04 473.672 21.4967 473.445 21.89C473.225 22.2767 472.925 22.58 472.545 22.8C472.165 23.0133 471.739 23.12 471.265 23.12ZM471.265 22.21C471.519 22.21 471.752 22.1467 471.965 22.02C472.185 21.8933 472.362 21.7067 472.495 21.46C472.629 21.2067 472.695 20.8933 472.695 20.52C472.695 20.1467 472.629 19.8367 472.495 19.59C472.369 19.3367 472.195 19.1467 471.975 19.02C471.762 18.8933 471.529 18.83 471.275 18.83C471.022 18.83 470.785 18.8933 470.565 19.02C470.352 19.1467 470.179 19.3367 470.045 19.59C469.912 19.8367 469.845 20.1467 469.845 20.52C469.845 20.8933 469.912 21.2067 470.045 21.46C470.179 21.7067 470.352 21.8933 470.565 22.02C470.779 22.1467 471.012 22.21 471.265 22.21ZM474.932 25.2V18.04H475.882L475.992 18.81C476.152 18.5767 476.372 18.37 476.652 18.19C476.932 18.01 477.292 17.92 477.732 17.92C478.212 17.92 478.635 18.0333 479.002 18.26C479.368 18.4867 479.655 18.7967 479.862 19.19C480.075 19.5833 480.182 20.03 480.182 20.53C480.182 21.03 480.075 21.4767 479.862 21.87C479.655 22.2567 479.368 22.5633 479.002 22.79C478.635 23.01 478.208 23.12 477.722 23.12C477.335 23.12 476.992 23.0433 476.692 22.89C476.398 22.7367 476.165 22.52 475.992 22.24V25.2H474.932ZM477.542 22.2C477.995 22.2 478.368 22.0467 478.662 21.74C478.955 21.4267 479.102 21.02 479.102 20.52C479.102 20.1933 479.035 19.9033 478.902 19.65C478.768 19.3967 478.585 19.2 478.352 19.06C478.118 18.9133 477.848 18.84 477.542 18.84C477.088 18.84 476.715 18.9967 476.422 19.31C476.135 19.6233 475.992 20.0267 475.992 20.52C475.992 21.02 476.135 21.4267 476.422 21.74C476.715 22.0467 477.088 22.2 477.542 22.2ZM481.488 25.2L482.678 22.59H482.388L480.428 18.04H481.578L483.098 21.71L484.688 18.04H485.808L482.608 25.2H481.488Z" fill="black"/>
</svg>
