<svg width="45" height="62" viewBox="0 0 45 62" fill="none" xmlns="http://www.w3.org/2000/svg">
<path d="M22.3767 2.70996C17.1726 2.7484 12.1926 4.83617 8.51263 8.52214C4.83269 12.2081 2.74834 17.1963 2.70996 22.4089C2.70996 34.1607 13.4453 38.6705 13.4453 44.7961V46.5735H31.3081V44.7961C31.3081 38.6998 42.0434 34.2195 42.0434 22.4089C42.005 17.1963 39.9207 12.2081 36.2407 8.52214C32.5608 4.83617 27.5808 2.7484 22.3767 2.70996V2.70996ZM13.4453 46.5735V53.2868H31.3081V46.5735H13.4453ZM13.4453 53.2868V60H31.3081V53.2868H13.4453Z" stroke="#F7C845" stroke-width="4" stroke-linejoin="round"/>
<path d="M20.6667 1C15.4626 1.03844 10.4826 3.1262 6.80267 6.81217C3.12273 10.4981 1.03838 15.4863 1 20.6989C1 32.4507 11.7353 36.9605 11.7353 43.0861V44.8636H29.5981V43.0861C29.5981 36.9899 40.3334 32.5095 40.3334 20.6989C40.2951 15.4863 38.2107 10.4981 34.5308 6.81217C30.8508 3.1262 25.8708 1.03844 20.6667 1V1ZM11.7353 44.8636V51.5768H29.5981V44.8636H11.7353ZM11.7353 51.5768V58.29H29.5981V51.5768H11.7353Z" stroke="black" stroke-width="1.5" stroke-linejoin="round"/>
</svg>
