<svg width="44" height="42" viewBox="0 0 44 42" fill="none" xmlns="http://www.w3.org/2000/svg">
<path d="M42.1154 20.5964C42.1154 31.0633 33.1053 39.6926 21.8077 39.6926C10.5101 39.6926 1.5 31.0633 1.5 20.5964C1.5 10.1295 10.5101 1.50024 21.8077 1.50024C33.1053 1.50024 42.1154 10.1295 42.1154 20.5964Z" fill="#333333" stroke="#F9F9F9" stroke-width="3"/>
<path d="M18.9619 19.4313H20.4619V17.9313V15.0952C20.4619 15.0908 20.4619 15.0863 20.4619 15.0818C20.4618 14.806 20.4616 14.2117 20.7819 13.6829C21.0258 13.2803 21.6434 12.6057 23.5917 12.6057H25.4391V13.2162H24.4792C23.7704 13.2162 23.1854 13.5434 22.8099 13.8766C22.4755 14.1733 21.9979 14.7563 21.9979 15.5483V17.9169V19.4169H23.4979H25.2786C25.2582 19.5854 25.2378 19.7463 25.2177 19.8976H23.4804H21.9804V21.3976V30.2019H20.4619V21.3976V19.8976H18.9619H18.2637V19.4313H18.9619Z" fill="#F9F9F9" stroke="#F9F9F9" stroke-width="3"/>
</svg>
