<svg width="45" height="42" viewBox="0 0 45 42" fill="none" xmlns="http://www.w3.org/2000/svg">
<path d="M42.8849 21.4041C42.8849 31.871 33.8748 40.5002 22.5772 40.5002C11.2797 40.5002 2.26953 31.871 2.26953 21.4041C2.26953 10.9372 11.2797 2.30792 22.5772 2.30792C33.8748 2.30792 42.8849 10.9372 42.8849 21.4041Z" fill="#333333" stroke="#F9F9F9" stroke-width="3"/>
<path d="M31.3137 15.8209C31.3137 14.2199 29.9677 13.0684 28.4875 13.0684C27.1954 13.0684 26.0055 13.946 25.724 15.2341C24.7675 14.7885 23.697 14.5406 22.5767 14.5406C18.6879 14.5406 15.3984 17.5276 15.3984 21.4034C15.3984 25.2792 18.6879 28.2662 22.5767 28.2662C26.4655 28.2662 29.755 25.2792 29.755 21.4034C29.755 20.3609 29.517 19.3828 29.0934 18.5097C29.2455 18.4773 29.3952 18.4326 29.5409 18.3757C29.8779 18.2441 30.1894 18.049 30.4557 17.7975C30.7221 17.5459 30.9382 17.2424 31.0872 16.902L31.0872 16.902C31.2361 16.562 31.3139 16.1944 31.3137 15.8209ZM31.3137 15.8209H29.8137L31.3137 15.8189C31.3137 15.8196 31.3137 15.8203 31.3137 15.8209ZM32.0753 17.1659L32.0753 17.1659L32.076 17.1783C32.1485 18.3944 32.1471 19.6027 32.1457 20.8718C32.1455 21.0478 32.1453 21.2249 32.1453 21.4034C32.1453 21.6046 32.1456 21.8039 32.1459 22.0016C32.1478 23.2482 32.1496 24.4325 32.0762 25.6257L32.0757 25.6333L32.0753 25.6409C32.0001 27.1068 31.6683 28.1495 30.7577 29.0095C29.8338 29.8821 28.6803 30.2149 27.079 30.2881L27.079 30.2881L27.068 30.2887C25.7722 30.3575 24.4847 30.3562 23.1417 30.3549C22.9554 30.3547 22.768 30.3545 22.5794 30.3545C22.3912 30.3545 22.2042 30.3547 22.0182 30.3549C20.677 30.3562 19.3891 30.3575 18.0908 30.2887L18.0908 30.2886L18.0799 30.2881C16.4779 30.2148 15.3276 29.8845 14.4012 29.0095L13.3712 30.1L14.4012 29.0095C13.493 28.1518 13.1587 27.1061 13.0835 25.6409L13.0836 25.6409L13.0828 25.6285C13.0104 24.4123 13.0117 23.202 13.0131 21.934C13.0133 21.7583 13.0135 21.5815 13.0135 21.4034C13.0135 21.2253 13.0133 21.0485 13.0131 20.8728C13.0117 19.6054 13.0104 18.3967 13.0829 17.1781L13.0829 17.1781L13.0835 17.1659C13.1587 15.7 13.4906 14.6572 14.4012 13.7973C15.3251 12.9246 16.4785 12.5919 18.0799 12.5187L18.0799 12.5187L18.0909 12.5181C19.3867 12.4493 20.6741 12.4506 22.0172 12.4519C22.2035 12.4521 22.3908 12.4523 22.5794 12.4523C22.7677 12.4523 22.9547 12.4521 23.1407 12.4519C24.4819 12.4506 25.7698 12.4493 27.0681 12.5181L27.0681 12.5182L27.079 12.5187C28.6809 12.592 29.8313 12.9223 30.7577 13.7973C31.6658 14.655 32.0002 15.7007 32.0753 17.1659ZM28.4866 18.5734C28.4869 18.5734 28.4872 18.5734 28.4875 18.5734V17.4988L28.4866 18.5734ZM20.3862 21.4034C20.3862 20.3922 21.291 19.4179 22.5767 19.4179C23.8623 19.4179 24.7671 20.3922 24.7671 21.4034C24.7671 22.4146 23.8623 23.3889 22.5767 23.3889C21.291 23.3889 20.3862 22.4146 20.3862 21.4034Z" fill="#F9F9F9" stroke="#F9F9F9" stroke-width="3"/>
</svg>
