<svg width="54" height="55" viewBox="0 0 54 55" fill="none" xmlns="http://www.w3.org/2000/svg">
<path d="M51.1077 41.8479L13.8293 4.56954C12.784 3.52419 11.0891 3.52419 10.0437 4.56954L3.19186 11.4214C2.1465 12.4668 2.1465 14.1616 3.19186 15.207L40.4702 52.4854C41.5156 53.5307 43.2105 53.5307 44.2558 52.4854L51.1077 45.6335C52.1531 44.5881 52.1531 42.8933 51.1077 41.8479Z" stroke="#F7C845" stroke-width="3" stroke-linecap="round" stroke-linejoin="round"/>
<path d="M31.4372 13.6082L42.0775 24.2485M32.4678 23.218L27.5291 28.1567L32.4678 23.218ZM14.9749 5.71167L10.0362 10.6504L14.9749 5.71167ZM20.8103 11.5471L18.0666 14.2908L20.8103 11.5471ZM26.6457 17.3825L23.8886 20.1262L26.6457 17.3825ZM49.9741 40.7108L45.0354 45.6496L49.9741 40.7108ZM38.3032 29.04L35.5595 31.7971L38.3032 29.04ZM44.1386 34.8754L41.3949 37.6191L44.1386 34.8754ZM27.1543 17.8911L32.0127 13.0327C32.5675 12.4795 33.2401 12.0586 33.9802 11.8014L46.0258 7.63897C46.3149 7.53972 46.6261 7.52363 46.924 7.59254C47.2218 7.66146 47.4943 7.8126 47.7105 8.02877C47.9267 8.24494 48.0778 8.51745 48.1467 8.81529C48.2157 9.11313 48.1996 9.42434 48.1003 9.71349L43.9379 21.7591C43.6807 22.4992 43.2598 23.1717 42.7066 23.7265L37.8615 28.5314L27.1543 17.8911ZM27.1543 39.2386L13.7703 52.6226C13.5291 52.865 13.2423 53.0574 12.9265 53.1886C12.6107 53.3199 12.272 53.3874 11.93 53.3874C11.588 53.3874 11.2494 53.3199 10.9336 53.1886C10.6178 53.0574 10.331 52.865 10.0897 52.6226L3.13004 45.6629C2.88764 45.4217 2.6953 45.1349 2.56405 44.8191C2.4328 44.5033 2.36523 44.1646 2.36523 43.8226C2.36523 43.4806 2.4328 43.142 2.56405 42.8262C2.6953 42.5104 2.88764 42.2236 3.13004 41.9823L16.514 28.5983L27.1543 39.2386ZM6.23513 38.8103L16.8754 49.4506L6.23513 38.8103Z" stroke="#F7C845" stroke-width="3" stroke-linecap="round" stroke-linejoin="round"/>
<path d="M50.8089 39.1712L13.5305 1.89278C12.4851 0.847429 10.7903 0.847428 9.74491 1.89278L2.89303 8.74467C1.84767 9.79002 1.84767 11.4849 2.89303 12.5302L40.1714 49.8086C41.2168 50.854 42.9116 50.854 43.957 49.8086L50.8089 42.9567C51.8542 41.9114 51.8542 40.2165 50.8089 39.1712Z" stroke="black" stroke-width="1.5" stroke-linecap="round" stroke-linejoin="round"/>
<path d="M31.1384 10.9314L41.7787 21.5716M32.169 20.5411L27.2303 25.4798L32.169 20.5411ZM14.6761 3.03479L9.73736 7.97349L14.6761 3.03479ZM20.5115 8.87022L17.7678 11.6139L20.5115 8.87022ZM26.3469 14.7056L23.5898 17.4494L26.3469 14.7056ZM49.6752 38.034L44.7365 42.9727L49.6752 38.034ZM38.0044 26.3631L35.2607 29.1202L38.0044 26.3631ZM43.8398 32.1985L41.0961 34.9423L43.8398 32.1985ZM26.8555 15.2142L31.7139 10.3558C32.2687 9.80259 32.9412 9.38168 33.6814 9.12451L45.727 4.96209C46.0161 4.86284 46.3273 4.84675 46.6252 4.91566C46.923 4.98458 47.1955 5.13572 47.4117 5.35189C47.6279 5.56806 47.779 5.84057 47.8479 6.13841C47.9168 6.43625 47.9007 6.74746 47.8015 7.03661L43.6391 19.0822C43.3819 19.8223 42.961 20.4949 42.4077 21.0497L37.5627 25.8545L26.8555 15.2142ZM26.8555 36.5617L13.4715 49.9457C13.2302 50.1881 12.9435 50.3805 12.6276 50.5117C12.3118 50.643 11.9732 50.7105 11.6312 50.7105C11.2892 50.7105 10.9506 50.643 10.6348 50.5117C10.3189 50.3805 10.0322 50.1881 9.7909 49.9457L2.83121 42.9861C2.58882 42.7448 2.39647 42.458 2.26522 42.1422C2.13397 41.8264 2.06641 41.4878 2.06641 41.1458C2.06641 40.8038 2.13397 40.4651 2.26522 40.1493C2.39647 39.8335 2.58882 39.5467 2.83121 39.3055L16.2152 25.9214L26.8555 36.5617ZM5.9363 36.1334L16.5766 46.7737L5.9363 36.1334Z" stroke="black" stroke-width="1.5" stroke-linecap="round" stroke-linejoin="round"/>
</svg>
