<svg width="62" height="61" viewBox="0 0 62 61" fill="none" xmlns="http://www.w3.org/2000/svg">
<path d="M31.5534 2.25183C47.2985 2.25183 60.0004 14.9537 60.0004 30.6988C60.0004 46.4439 47.2985 59.1458 31.5534 59.1458C15.8083 59.1458 3.10645 46.4439 3.10645 30.6988C3.10645 14.9537 15.8083 2.25183 31.5534 2.25183Z" stroke="#F7C845" stroke-width="3" stroke-miterlimit="90" stroke-linecap="round" stroke-linejoin="round"/>
<path d="M31.5535 8.20581C43.9908 8.20581 54.0464 18.2615 54.0464 30.6988C54.0464 43.136 43.9908 53.1917 31.5535 53.1917C19.1162 53.1917 9.06055 43.136 9.06055 30.6988C9.06055 18.2615 19.1162 8.20581 31.5535 8.20581Z" stroke="#F7C845" stroke-width="3" stroke-miterlimit="90" stroke-linecap="round" stroke-linejoin="round"/>
<path d="M43.064 32.419C43.9902 32.1543 44.6517 31.2282 44.3871 30.302C44.2548 29.6404 43.7255 29.1112 43.064 28.9789L25.0696 18.6586C24.1434 18.3939 23.2172 18.9232 22.9526 19.8494C22.9526 19.9817 22.8203 20.2463 22.8203 20.5109V41.1515C22.8203 42.0777 23.4819 42.8716 24.4081 43.0039C24.6727 43.0039 24.805 43.0039 25.0696 42.8716L43.064 32.419V32.419Z" stroke="#F7C845" stroke-width="3" stroke-miterlimit="90" stroke-linecap="round" stroke-linejoin="round"/>
<path d="M29.447 1C45.192 1 57.8939 13.7019 57.8939 29.447C57.8939 45.192 45.192 57.8939 29.447 57.8939C13.7019 57.8939 1 45.192 1 29.447C1 13.7019 13.7019 1 29.447 1Z" stroke="black" stroke-width="1.5" stroke-miterlimit="90" stroke-linecap="round" stroke-linejoin="round"/>
<path d="M29.4471 6.95386C41.8843 6.95386 51.94 17.0095 51.94 29.4468C51.94 41.8841 41.8843 51.9398 29.4471 51.9398C17.0098 51.9398 6.9541 41.8841 6.9541 29.4468C6.9541 17.0095 17.0098 6.95386 29.4471 6.95386Z" stroke="black" stroke-width="1.5" stroke-miterlimit="90" stroke-linecap="round" stroke-linejoin="round"/>
<path d="M40.9575 31.1669C41.8837 30.9023 42.5453 29.9761 42.2806 29.0499C42.1483 28.3884 41.6191 27.8591 40.9575 27.7268L22.9632 17.4065C22.037 17.1419 21.1108 17.6711 20.8462 18.5973C20.8462 18.7296 20.7139 18.9942 20.7139 19.2589V39.8994C20.7139 40.8256 21.3754 41.6195 22.3016 41.7518C22.5662 41.7518 22.6985 41.7518 22.9632 41.6195L40.9575 31.1669V31.1669Z" stroke="black" stroke-width="1.5" stroke-miterlimit="90" stroke-linecap="round" stroke-linejoin="round"/>
</svg>
