<svg width="57" height="60" viewBox="0 0 57 60" fill="none" xmlns="http://www.w3.org/2000/svg">
<path d="M23.2282 3.58191C22.9155 3.59512 22.6169 3.71509 22.382 3.92181C22.1471 4.12853 21.9901 4.40951 21.9372 4.71793L20.9045 11.9084C19.263 12.5876 17.7213 13.4866 16.3217 14.5807L9.53136 11.8439C9.23181 11.7162 8.89509 11.7065 8.58866 11.8166C8.28223 11.9267 8.02873 12.1486 7.87897 12.4377L2.45704 21.8228C2.30093 22.1101 2.25287 22.4438 2.32154 22.7635C2.39021 23.0832 2.57109 23.3677 2.83141 23.5656L8.49861 28.1097C8.38524 28.9659 8.32059 29.8279 8.30497 30.6915C8.31716 31.5767 8.38182 32.4604 8.49861 33.3379L2.83141 37.8175C2.57961 38.0225 2.40889 38.3103 2.34977 38.6296C2.29064 38.9488 2.34697 39.2787 2.50868 39.5602L7.9306 48.9453C8.08037 49.2345 8.33386 49.4563 8.64029 49.5664C8.94672 49.6766 9.28345 49.6668 9.583 49.5392L16.3346 46.8024C17.7346 47.889 19.271 48.7874 20.9045 49.4746L21.9243 56.6651C21.9772 56.9735 22.1341 57.2545 22.3691 57.4612C22.604 57.668 22.9026 57.7879 23.2153 57.8011H34.0591C34.3725 57.7903 34.6724 57.6712 34.9078 57.4641C35.1432 57.2569 35.2995 56.9746 35.35 56.6651L36.3957 49.4746C38.0358 48.7926 39.5771 47.8939 40.9785 46.8024L47.7559 49.5392C48.0555 49.6668 48.3922 49.6766 48.6986 49.5664C49.0051 49.4563 49.2586 49.2345 49.4083 48.9453L54.8302 39.5602C54.9877 39.2744 55.0378 38.9416 54.9716 38.6221C54.9053 38.3025 54.727 38.0171 54.4688 37.8175L48.7887 33.3379C48.9011 32.4601 48.9615 31.5765 48.9694 30.6915C48.9585 29.8282 48.8982 28.9661 48.7887 28.1097L54.4688 23.5656C54.7206 23.3606 54.8913 23.0728 54.9504 22.7535C55.0095 22.4342 54.9532 22.1044 54.7915 21.8228L49.3696 12.4377C49.2094 12.1588 48.9552 11.9459 48.6525 11.8371C48.3498 11.7283 48.0183 11.7307 47.7172 11.8439L40.9656 14.5807C39.5656 13.4941 38.0292 12.5957 36.3957 11.9084L35.3759 4.71793C35.3208 4.41053 35.1632 4.13085 34.9287 3.92454C34.6943 3.71822 34.3968 3.59745 34.0849 3.58191H23.2282Z" stroke="#F7C845" stroke-width="3" stroke-linecap="round" stroke-linejoin="round"/>
<path d="M28.6507 43.175C35.5236 43.175 41.0953 37.6033 41.0953 30.7304C41.0953 23.8574 35.5236 18.2858 28.6507 18.2858C21.7777 18.2858 16.2061 23.8574 16.2061 30.7304C16.2061 37.6033 21.7777 43.175 28.6507 43.175Z" stroke="#F7C845" stroke-width="3" stroke-linecap="round" stroke-linejoin="round"/>
<path d="M23.0088 41.8324L39.7393 25.076" stroke="#F7C845" stroke-width="3" stroke-linecap="round" stroke-linejoin="round"/>
<path d="M21.9372 1C21.6245 1.01322 21.3259 1.13318 21.091 1.3399C20.856 1.54662 20.6991 1.82761 20.6462 2.13602L19.6135 9.32653C17.9719 10.0057 16.4303 10.9047 15.0307 11.9988L8.24034 9.26198C7.9408 9.13432 7.60407 9.12458 7.29764 9.2347C6.99121 9.34482 6.73771 9.56668 6.58795 9.85581L1.16603 19.2409C1.00992 19.5282 0.96185 19.8619 1.03052 20.1816C1.0992 20.5013 1.28007 20.7858 1.5404 20.9837L7.2076 25.5277C7.09422 26.384 7.02957 27.246 7.01396 28.1096C7.02615 28.9948 7.09081 29.8785 7.2076 30.756L1.5404 35.2356C1.28859 35.4406 1.11787 35.7284 1.05875 36.0476C0.999628 36.3669 1.05595 36.6968 1.21766 36.9783L6.63959 46.3634C6.78935 46.6526 7.04285 46.8744 7.34928 46.9845C7.65571 47.0947 7.99243 47.0849 8.29198 46.9573L15.0436 44.2205C16.4436 45.3071 17.98 46.2055 19.6135 46.8927L20.6333 54.0832C20.6862 54.3916 20.8431 54.6726 21.078 54.8793C21.313 55.0861 21.6116 55.206 21.9242 55.2192H32.7681C33.0815 55.2084 33.3814 55.0893 33.6168 54.8821C33.8522 54.675 34.0084 54.3927 34.059 54.0832L35.1047 46.8927C36.7448 46.2107 38.2861 45.312 39.6875 44.2205L46.4649 46.9573C46.7645 47.0849 47.1012 47.0947 47.4076 46.9845C47.714 46.8744 47.9675 46.6526 48.1173 46.3634L53.5392 36.9783C53.6967 36.6925 53.7468 36.3597 53.6805 36.0402C53.6143 35.7206 53.4359 35.4352 53.1778 35.2356L47.4976 30.756C47.6101 29.8782 47.6705 28.9946 47.6784 28.1096C47.6675 27.2462 47.6072 26.3842 47.4976 25.5277L53.1778 20.9837C53.4296 20.7787 53.6003 20.4909 53.6594 20.1716C53.7185 19.8523 53.6622 19.5225 53.5005 19.2409L48.0786 9.85581C47.9184 9.57686 47.6642 9.36396 47.3615 9.25518C47.0588 9.14639 46.7273 9.1488 46.4262 9.26198L39.6746 11.9988C38.2746 10.9122 36.7382 10.0138 35.1047 9.32653L34.0848 2.13602C34.0298 1.82862 33.8722 1.54894 33.6377 1.34263C33.4033 1.13631 33.1058 1.01554 32.7939 1H21.9372Z" stroke="black" stroke-width="1.5" stroke-linecap="round" stroke-linejoin="round"/>
<path d="M27.3596 40.5929C34.2326 40.5929 39.8042 35.0213 39.8042 28.1483C39.8042 21.2754 34.2326 15.7037 27.3596 15.7037C20.4867 15.7037 14.915 21.2754 14.915 28.1483C14.915 35.0213 20.4867 40.5929 27.3596 40.5929Z" stroke="black" stroke-width="1.5" stroke-linecap="round" stroke-linejoin="round"/>
<path d="M21.7178 39.2503L38.4483 22.494" stroke="black" stroke-width="1.5" stroke-linecap="round" stroke-linejoin="round"/>
</svg>
