<svg width="44" height="42" viewBox="0 0 44 42" fill="none" xmlns="http://www.w3.org/2000/svg">
<path d="M42.4279 21.4041C42.4279 31.871 33.4178 40.5002 22.1202 40.5002C10.8226 40.5002 1.8125 31.871 1.8125 21.4041C1.8125 10.9372 10.8226 2.30792 22.1202 2.30792C33.4178 2.30792 42.4279 10.9372 42.4279 21.4041Z" fill="#333333" stroke="#F9F9F9" stroke-width="3"/>
<path d="M29.4209 15.9551C29.5126 15.9384 29.604 15.9204 29.6951 15.9014C29.6406 15.9397 29.5855 15.9774 29.5298 16.0144L28.8364 16.4747L28.8599 17.3066L28.8745 17.8242C28.8634 22.5674 24.9619 28.1425 17.6454 28.1425L17.6434 28.1425C17.3944 28.1428 17.1461 28.1354 16.8988 28.1204C17.3844 27.8708 17.8513 27.584 18.2947 27.2613L21.9405 24.6079L17.4318 24.5486C16.7958 24.5402 16.1862 24.3447 15.6876 23.9999L15.6049 24.1195L15.6876 23.9999C15.6576 23.9791 15.628 23.9579 15.599 23.9362L15.5237 21.613C15.0082 21.5192 14.5399 21.302 14.1591 20.9948L19.2259 21.1448L14.4842 18.2054C13.9745 17.8895 13.596 17.445 13.3872 16.9399C14.1363 17.4924 14.9427 17.9734 15.7948 18.375C17.5638 19.2088 19.4938 19.6836 21.4621 19.7719L23.4735 19.8621L22.9844 17.909C22.9383 17.725 22.9138 17.5303 22.9138 17.326C22.9138 15.9579 24.1405 14.6655 25.8865 14.6656L25.891 14.6655C26.3094 14.6643 26.7216 14.7437 27.1019 14.8967C27.4821 15.0498 27.8195 15.272 28.0959 15.5456L28.6516 16.0958L29.4209 15.9551ZM12.3091 13.9276C12.0031 14.414 11.8086 14.9535 11.7355 15.5114L12.3091 13.9276Z" fill="#F9F9F9" stroke="#F9F9F9" stroke-width="3"/>
</svg>
